<svg baseProfile="tiny" xmlns="http://www.w3.org/2000/svg" width="660" height="180"><path fill="#FFF" d="M340 0h150v180H340zM170 0h150v180H170zM0 0h150v180H0zm510 0h150v180H510z"/><path d="M47.29 151.249h1.53l1.656 4.97c.252.864.541 1.747.811 2.575h.072c.252-.828.541-1.711.792-2.575l1.656-4.97h1.458L52.169 160H50.44l-3.15-8.751zm12.871-.216c2.232 0 3.493 1.603 3.493 4.105 0 .306-.018.594-.054.811h-5.906c.108 1.891 1.242 3.078 2.917 3.078.828 0 1.53-.27 2.179-.684l.522.972c-.756.486-1.692.9-2.881.9-2.341 0-4.195-1.71-4.195-4.573 0-2.862 1.927-4.609 3.925-4.609zm2.197 3.944c0-1.782-.792-2.772-2.161-2.772-1.225 0-2.341 1.008-2.521 2.772h4.682zm3.454-3.728h1.224l.126 1.585h.054c.594-1.099 1.495-1.801 2.485-1.801.378 0 .648.054.936.18l-.288 1.297c-.288-.09-.486-.145-.846-.145-.738 0-1.621.541-2.215 2.018V160h-1.476v-8.751zm6.498 1.207h-1.296v-1.116l1.369-.091.18-2.448h1.243v2.448h2.358v1.207h-2.358v4.861c0 1.08.342 1.692 1.35 1.692.306 0 .702-.126.99-.234l.288 1.116c-.486.162-1.08.324-1.62.324-1.873 0-2.503-1.188-2.503-2.917v-4.842zm5.562-3.962c0-.576.45-.954 1.026-.954s1.026.378 1.026.954c0 .559-.45.955-1.026.955s-1.026-.396-1.026-.955zm.27 2.755h1.477V160h-1.477v-8.751zm7.992-.216c1.152 0 1.962.486 2.557 1.045l-.738.954c-.522-.45-1.062-.774-1.764-.774-1.584 0-2.737 1.368-2.737 3.385 0 1.999 1.098 3.35 2.701 3.35.828 0 1.53-.415 2.053-.883l.666.973c-.792.702-1.801 1.134-2.845 1.134-2.323 0-4.105-1.674-4.105-4.573-.001-2.936 1.962-4.611 4.212-4.611zm9.415 3.421c0-1.116-.378-2.196-1.8-2.196-1.026 0-1.927.468-2.611.937l-.594-1.026c.81-.522 2.035-1.135 3.439-1.135 2.143 0 3.043 1.423 3.043 3.602V160h-1.224l-.126-1.044h-.036c-.846.684-1.819 1.26-2.899 1.26-1.477 0-2.575-.918-2.575-2.484 0-1.91 1.656-2.864 5.383-3.278zm-2.395 4.573c.846 0 1.548-.414 2.395-1.17v-2.431c-2.935.36-3.925 1.08-3.925 2.196 0 .991.666 1.405 1.53 1.405zm6.659-11.847h1.477v11.164c0 .468.198.648.414.648.09 0 .162 0 .324-.036l.198 1.116c-.198.09-.45.144-.846.144-1.116 0-1.566-.702-1.566-1.98V147.18z"/><path fill="#CCD0E3" d="M96 22v103H56V22h40m3-3H53v109h46V19z"/><path fill="#6774AA" d="M59 86h15v16H59zm0-20h15v16H59zm0 40h15v16H59zm0-81h34v37H59z"/><path fill="#CCD0E3" d="M294 52v43h-98V52h98m3-3H193v49h104V49z"/><path fill="#6774AA" d="M256 55h15v16h-15zm-19 0h15v16h-15zm38 0h15v16h-15zm-76 0h34v37h-34z"/><path d="M208.047 147.18h1.476v3.493l-.054 1.801c.828-.792 1.71-1.44 2.917-1.44 1.836 0 2.665 1.188 2.665 3.421V160h-1.477v-5.348c0-1.639-.504-2.341-1.656-2.341-.9 0-1.513.469-2.395 1.351V160h-1.476v-12.82zm13.195 3.853c2.143 0 4.051 1.675 4.051 4.609 0 2.899-1.909 4.573-4.051 4.573s-4.051-1.674-4.051-4.573c0-2.934 1.909-4.609 4.051-4.609zm0 7.959c1.513 0 2.521-1.351 2.521-3.35 0-2.017-1.008-3.385-2.521-3.385-1.494 0-2.521 1.368-2.521 3.385.001 2 1.027 3.35 2.521 3.35zm6.353-7.743h1.224l.126 1.585H229c.594-1.099 1.495-1.801 2.485-1.801.378 0 .648.054.936.18l-.288 1.297c-.288-.09-.486-.145-.846-.145-.738 0-1.621.541-2.215 2.018V160h-1.476v-8.751zm5.976-2.755c0-.576.45-.954 1.026-.954s1.026.378 1.026.954c0 .559-.45.955-1.026.955s-1.026-.396-1.026-.955zm.27 2.755h1.477V160h-1.477v-8.751zm3.509 7.959l4.609-6.752h-4.105v-1.207h5.978v.793l-4.609 6.752h4.753V160h-6.626v-.792zm11.791-8.175c2.143 0 4.051 1.675 4.051 4.609 0 2.899-1.909 4.573-4.051 4.573s-4.051-1.674-4.051-4.573c0-2.934 1.909-4.609 4.051-4.609zm0 7.959c1.513 0 2.521-1.351 2.521-3.35 0-2.017-1.008-3.385-2.521-3.385-1.495 0-2.521 1.368-2.521 3.385.001 2 1.026 3.35 2.521 3.35zm6.353-7.743h1.224l.126 1.261h.054c.828-.828 1.729-1.477 2.935-1.477 1.836 0 2.665 1.188 2.665 3.421V160h-1.477v-5.348c0-1.639-.504-2.341-1.656-2.341-.9 0-1.513.469-2.395 1.351V160h-1.477v-8.751zm10.098 1.207h-1.296v-1.116l1.368-.091.18-2.448h1.243v2.448h2.358v1.207h-2.358v4.861c0 1.08.342 1.692 1.35 1.692.306 0 .702-.126.99-.234l.288 1.116c-.486.162-1.08.324-1.62.324-1.873 0-2.503-1.188-2.503-2.917v-4.842zm10.46 1.998c0-1.116-.378-2.196-1.8-2.196-1.026 0-1.927.468-2.611.937l-.594-1.026c.81-.522 2.035-1.135 3.439-1.135 2.143 0 3.043 1.423 3.043 3.602V160h-1.224l-.126-1.044h-.036c-.846.684-1.819 1.26-2.899 1.26-1.477 0-2.575-.918-2.575-2.484-.001-1.91 1.656-2.864 5.383-3.278zm-2.395 4.573c.846 0 1.548-.414 2.395-1.17v-2.431c-2.935.36-3.925 1.08-3.925 2.196 0 .991.666 1.405 1.53 1.405zm6.659-11.847h1.477v11.164c0 .468.198.648.414.648.09 0 .162 0 .324-.036l.198 1.116c-.198.09-.45.144-.846.144-1.116 0-1.566-.702-1.566-1.98V147.18zm106.399 3.853c1.008 0 1.674.378 2.449 1.009l-.072-1.495v-3.367h1.494V160h-1.225l-.126-1.026h-.054c-.685.666-1.621 1.242-2.646 1.242-2.197 0-3.619-1.656-3.619-4.573 0-2.845 1.801-4.61 3.799-4.61zm.144 7.941c.81 0 1.512-.396 2.232-1.206v-4.573c-.738-.667-1.404-.919-2.125-.919-1.404 0-2.521 1.351-2.521 3.35.001 2.087.883 3.348 2.414 3.348zm6.407-10.48c0-.576.45-.954 1.026-.954s1.026.378 1.026.954c0 .559-.45.955-1.026.955s-1.026-.396-1.026-.955zm.269 2.755h1.477V160h-1.477v-8.751zm9.379 3.205c0-1.116-.377-2.196-1.8-2.196-1.026 0-1.927.468-2.61.937l-.595-1.026c.811-.522 2.034-1.135 3.438-1.135 2.143 0 3.043 1.423 3.043 3.602V160h-1.224l-.126-1.044h-.036c-.847.684-1.819 1.26-2.899 1.26-1.477 0-2.574-.918-2.574-2.484 0-1.91 1.657-2.864 5.383-3.278zm-2.394 4.573c.847 0 1.549-.414 2.395-1.17v-2.431c-2.934.36-3.924 1.08-3.924 2.196-.001.991.665 1.405 1.529 1.405zm7.271.667v-.072c-.432-.271-.773-.738-.773-1.423 0-.738.504-1.314.953-1.62v-.072c-.576-.468-1.134-1.314-1.134-2.358 0-1.909 1.513-3.115 3.295-3.115.486 0 .919.09 1.243.216h3.042v1.135h-1.8c.414.396.72 1.062.72 1.801 0 1.872-1.423 3.043-3.205 3.043a3.04 3.04 0 01-1.314-.307c-.306.271-.558.559-.558 1.045 0 .558.359.954 1.548.954h1.692c2.035 0 3.062.63 3.062 2.088 0 1.621-1.711 3.025-4.43 3.025-2.143 0-3.619-.847-3.619-2.358 0-.739.486-1.442 1.278-1.982zm2.557 3.313c1.675 0 2.773-.864 2.773-1.782 0-.811-.631-1.08-1.765-1.08h-1.513c-.342 0-.756-.036-1.135-.145-.63.45-.9.973-.9 1.477.001.936.956 1.53 2.54 1.53zm1.638-8.859c0-1.278-.828-2.035-1.854-2.035s-1.854.757-1.854 2.035.846 2.089 1.854 2.089 1.854-.81 1.854-2.089zm7.416-3.115c2.143 0 4.051 1.675 4.051 4.609 0 2.899-1.908 4.573-4.051 4.573s-4.051-1.674-4.051-4.573c.001-2.934 1.909-4.609 4.051-4.609zm0 7.959c1.513 0 2.521-1.351 2.521-3.35 0-2.017-1.009-3.385-2.521-3.385-1.494 0-2.521 1.368-2.521 3.385.001 2 1.027 3.35 2.521 3.35zm6.354-7.743h1.224l.126 1.261h.055c.828-.828 1.729-1.477 2.935-1.477 1.837 0 2.665 1.188 2.665 3.421V160h-1.477v-5.348c0-1.639-.504-2.341-1.656-2.341-.9 0-1.514.469-2.396 1.351V160h-1.476v-8.751zm14.797 3.205c0-1.116-.378-2.196-1.801-2.196-1.025 0-1.926.468-2.61.937l-.595-1.026c.811-.522 2.035-1.135 3.439-1.135 2.143 0 3.043 1.423 3.043 3.602V160h-1.225l-.126-1.044h-.036c-.846.684-1.818 1.26-2.898 1.26-1.477 0-2.574-.918-2.574-2.484 0-1.91 1.656-2.864 5.383-3.278zm-2.395 4.573c.846 0 1.549-.414 2.395-1.17v-2.431c-2.935.36-3.925 1.08-3.925 2.196 0 .991.666 1.405 1.53 1.405zm6.659-11.847h1.477v11.164c0 .468.198.648.414.648.09 0 .162 0 .323-.036l.199 1.116c-.199.09-.451.144-.847.144-1.116 0-1.566-.702-1.566-1.98V147.18z"/><path fill="#CCD0E3" d="M462 23v104h-94V23h94m3-3H365v110h100V20z"/><path fill="#6774AA" d="M389 87h15v16h-15zm17-19h15v16h-15zm-34 39h15v16h-15zm52-80h34v37h-34z"/><path d="M564.237 158.02c.757.612 1.53 1.044 2.575 1.044 1.152 0 1.729-.612 1.729-1.368 0-.9-1.045-1.297-1.999-1.656-1.242-.45-2.61-1.045-2.61-2.521 0-1.404 1.116-2.484 3.007-2.484 1.099 0 2.052.45 2.719.99l-.702.937c-.594-.45-1.225-.774-1.999-.774-1.099 0-1.603.595-1.603 1.261 0 .81.955 1.134 1.945 1.513 1.26.468 2.664.99 2.664 2.646 0 1.422-1.134 2.61-3.205 2.61-1.242 0-2.43-.521-3.259-1.206l.738-.992zm7.777-6.771h1.225l.125 1.261h.055c.756-.828 1.674-1.477 2.719-1.477 1.332 0 2.053.63 2.412 1.675.919-.99 1.819-1.675 2.881-1.675 1.801 0 2.666 1.188 2.666 3.421V160h-1.477v-5.348c0-1.639-.522-2.341-1.621-2.341-.684 0-1.387.45-2.196 1.351V160h-1.477v-5.348c0-1.639-.522-2.341-1.639-2.341-.647 0-1.386.45-2.196 1.351V160h-1.477v-8.751zm19.873 3.205c0-1.116-.378-2.196-1.801-2.196-1.025 0-1.926.468-2.61.937l-.595-1.026c.811-.522 2.035-1.135 3.439-1.135 2.143 0 3.043 1.423 3.043 3.602V160h-1.225l-.126-1.044h-.036c-.846.684-1.818 1.26-2.898 1.26-1.477 0-2.574-.918-2.574-2.484 0-1.91 1.656-2.864 5.383-3.278zm-2.395 4.573c.846 0 1.549-.414 2.395-1.17v-2.431c-2.935.36-3.925 1.08-3.925 2.196 0 .991.666 1.405 1.53 1.405zm6.659-7.778h1.224l.127 1.585h.054c.595-1.099 1.495-1.801 2.485-1.801.377 0 .647.054.936.18l-.288 1.297c-.288-.09-.485-.145-.847-.145-.738 0-1.62.541-2.214 2.018V160h-1.477v-8.751zm6.497 1.207h-1.296v-1.116l1.368-.091.18-2.448h1.243v2.448h2.358v1.207h-2.358v4.861c0 1.08.342 1.692 1.351 1.692.306 0 .701-.126.99-.234l.287 1.116c-.485.162-1.08.324-1.619.324-1.873 0-2.504-1.188-2.504-2.917v-4.842z"/><path fill="#6774AA" d="M578 45h15v16h-15zm-19 0h15v16h-15zm38 0h15v16h-15zm-38 20h34v37h-34z"/><path fill="#CCD0E3" d="M616 41v65h-61V41h61m3-3h-67v71h67V38z"/></svg>