<svg baseProfile="tiny" xmlns="http://www.w3.org/2000/svg" width="603" height="153"><path fill="#FFF" d="M1.5 1.5h600v150H1.5z"/><path fill="#E5E5E5" d="M600 3v147H3V3h597m3-3H0v153h603V0z"/><g fill="#E5E5E5"><path d="M75 3h3v147h-3zm75 0h3v147h-3zm75 0h3v147h-3zm75 0h3v147h-3zm75 0h3v147h-3zm75 0h3v147h-3zm75 0h3v147h-3z"/><path d="M3 75h597v3H3z"/></g><path fill="#34478F" d="M395 96c-1.1 0-2 .9-2 2v32c0 1.1.9 2 2 2h20c1.1 0 2-.9 2-2v-14c0-1.1.9-2 2-2h8c1.1 0 2-.9 2-2V98c0-1.1-.9-2-2-2h-32z"/><path fill="#FFF" d="M396 99h30v30h-30z"/><path fill="#CCD0E3" d="M417 114h6v-12h-24v24h18z"/><path fill="#6774AA" d="M399 123h18v3h-18zm19.714-13.5c0 4.145-3.454 7.5-7.714 7.5s-7.714-3.355-7.714-7.5c0-4.137 3.454-7.5 7.714-7.5s7.714 3.363 7.714 7.5zM408 117h6v6h-6z"/><path d="M414 111v27h24v-27h-24zm21 18h-3v3h3v3h-18v-3h3v-3h-3v-3h18v3zm0-12h-3v3h3v3h-18v-3h3v-3h-3v-3h18v3z"/><path d="M420 114h12v9h-12zm0 12h12v9h-12z" fill="#6774AA"/><path fill="none" d="M462 87h48v48h-48zm-72 6h48v48h-48zm-75-3h48v48h-48zm-150 0h48v48h-48zm-75 0h48v48H90zm-75 0h48v48H15zm522-75h48v48h-48zm-75 0h48v48h-48zm-72 0h48v48h-48zm-75 0h48v48h-48zm-75 0h48v48h-48zm-75 0h48v48h-48zm-75 0h48v48H90zm-75 0h48v48H15z"/><path d="M264 105v-3c-1.65 0-3 1.35-3 3h3z"/><path d="M409.611 24H435v3h-25.389zm0 15H435v3h-25.389zm0 15H435v3h-25.389z" fill="#E6E6E6"/><path d="M402.3 27.3c-.375-.375-.3-1.5-.3-1.5V18h-2.7s-.066 1.734-.956 2.297C397.635 20.745 396 21 396 21v2.25l3.3-.45v3s.052 1.148-.3 1.5c-.328.328-1.2.3-1.2.3H396V30h9v-2.4h-1.5s-.848.052-1.2-.3zm-6.3 6.966s1.734-1.312 4.125-1.266c2.531.05 4.576 1.271 4.815 3.422.375 3.375-4.721 5.878-4.721 5.878H405V45h-9v-3.3s6.047-2.138 6-4.528c-.024-1.23-1.312-1.688-3.141-1.5-1.212.124-2.859.938-2.859.938v-2.344zm0 14.812s1.266-1.078 3.516-1.125c2.862-.06 4.093.888 4.359 2.531.281 1.734-.703 2.625-.703 2.625s1.811 1.223 1.781 3.047C404.905 59.103 402 60 400.421 60c-3.859 0-4.421-.656-4.421-.656V57s2.693.562 3.656.562c1.266 0 1.947-.261 2.291-.878 1.131-2.028-2.619-2.544-2.619-2.544l-.047-1.125s2.166-.224 2.203-1.266c.047-1.312-1.125-1.688-2.719-1.641C397.5 50.147 396 51 396 51v-1.922z" fill="#EDEDED"/><path fill="#FFF" d="M318 93h42v42h-42z"/><path fill="#E6E6E6" d="M357 96v36h-36V96h36m2-3h-40c-.55 0-1 .45-1 1v40c0 .55.45 1 1 1h40c.55 0 1-.45 1-1V94c0-.55-.45-1-1-1z"/><path fill="#FAFAFA" d="M324 99h30v30h-30z"/><path fill="#F1F1F1" d="M348 111c4.277 6-1.91 9-9 9s-12.838-3-8.561-9c3.173-4.447 1.471-9 8.561-9s5.827 4.553 9 9zm-24 15h30v3h-30zm12-6h6v6h-6z"/><path d="M175.763 114.59c-1.476 0-1.512.036-1.512 1.044v5.183c0 3.348.216 3.672 1.835 3.888l1.152.144c.288.216.288 1.044 0 1.26a156.787 156.787 0 00-5.471-.108c-1.728 0-3.527.036-5.363.108-.288-.216-.288-1.044 0-1.26l.864-.108c1.656-.216 1.836-.576 1.836-3.924v-13.39c0-3.348-.18-3.708-1.836-3.923l-.864-.108c-.288-.216-.288-1.044 0-1.26 1.764.072 3.636.108 5.363.108 1.62 0 3.419-.036 5.003-.108.288.216.288 1.044 0 1.26l-.756.108c-1.548.216-1.764.576-1.764 3.923v4.175c0 1.044.036 1.08 1.512 1.08h7.487c1.512 0 1.512-.036 1.512-1.08v-4.175c0-3.348-.18-3.635-1.836-3.887l-.972-.144c-.288-.216-.288-1.044 0-1.26 1.979.072 3.743.108 5.471.108 1.764 0 3.419-.036 5.075-.108.288.216.288 1.044 0 1.26l-.72.108c-1.656.252-1.872.576-1.872 3.923v13.39c0 3.348.216 3.6 1.872 3.888l.864.144c.288.216.288 1.044 0 1.26a127.177 127.177 0 00-10.511 0c-.288-.216-.288-1.044 0-1.26l.792-.108c1.656-.216 1.836-.576 1.836-3.924v-5.183c0-1.008 0-1.044-1.512-1.044h-7.485zm21.133-6.371c-.504.144-1.008-.252-1.008-.684 1.439-2.916 4.283-4.571 7.523-4.571 3.527 0 5.723 1.728 5.723 4.14 0 1.476-.612 2.952-4.535 4.643-.396.18-.144.468.324.468 3.24-.108 6.047 2.124 6.047 5.579 0 2.592-1.26 5.219-4.14 7.343-3.096 2.231-6.371 2.879-8.315 2.879s-3.888-.72-3.888-2.556c0-.972.72-1.979 2.16-1.979 1.295 0 2.087 1.439 2.412 1.908a1.795 1.795 0 001.548.828c1.548 0 4.823-2.052 4.823-6.479 0-3.204-1.656-5.507-4.211-5.507-1.476 0-2.664.684-3.563 1.512-.72-.144-1.152-.9-.828-1.728 1.44-.54 4.355-1.728 5.795-2.916a4.196 4.196 0 001.512-3.239c0-1.332-1.188-2.628-2.952-2.628-1.727-.001-3.347 1.367-4.427 2.987zm-96.133 6.371c-1.476 0-1.512.036-1.512 1.044v5.183c0 3.348.216 3.672 1.835 3.888l1.152.144c.288.216.288 1.044 0 1.26a156.787 156.787 0 00-5.471-.108c-1.728 0-3.527.036-5.363.108-.288-.216-.288-1.044 0-1.26l.864-.108c1.656-.216 1.836-.576 1.836-3.924v-13.39c0-3.348-.18-3.708-1.836-3.923l-.864-.108c-.288-.216-.288-1.044 0-1.26 1.764.072 3.636.108 5.363.108 1.62 0 3.419-.036 5.003-.108.288.216.288 1.044 0 1.26l-.756.108c-1.548.216-1.764.576-1.764 3.923v4.175c0 1.044.036 1.08 1.512 1.08h7.487c1.512 0 1.512-.036 1.512-1.08v-4.175c0-3.348-.18-3.635-1.836-3.887l-.972-.144c-.288-.216-.288-1.044 0-1.26 1.979.072 3.743.108 5.471.108 1.764 0 3.419-.036 5.075-.108.288.216.288 1.044 0 1.26l-.72.108c-1.656.252-1.872.576-1.872 3.923v13.39c0 3.348.216 3.6 1.872 3.888l.864.144c.288.216.288 1.044 0 1.26a127.177 127.177 0 00-10.511 0c-.288-.216-.288-1.044 0-1.26l.792-.108c1.656-.216 1.836-.576 1.836-3.924v-5.183c0-1.008 0-1.044-1.512-1.044h-7.485zm30.564 7.703c2.627 0 3.06-.072 4.104-1.98.252-.252 1.08-.252 1.224.216-.324 2.231-1.152 4.715-1.764 5.579-1.44-.072-2.736-.108-5.04-.108h-5.723c-1.872 0-3.419.036-4.031.108-.324-.072-.432-.468-.36-.792 1.368-1.26 3.42-3.167 5.58-5.543 2.483-2.736 4.715-5.759 4.715-9.611 0-2.484-1.512-4.392-3.923-4.392-2.052 0-3.492 1.332-4.644 3.312-.432.288-1.116.072-1.188-.504 1.476-3.635 4.788-5.615 8.279-5.615 4.212 0 6.803 2.736 6.803 6.119 0 2.808-1.116 4.823-5.435 8.891l-1.728 1.62c-1.583 1.476-1.908 1.98-1.908 2.268 0 .216.18.432.684.432h4.355zM28.763 114.59c-1.476 0-1.512.036-1.512 1.044v5.183c0 3.348.216 3.672 1.835 3.888l1.152.144c.288.216.288 1.044 0 1.26a156.787 156.787 0 00-5.471-.108c-1.728 0-3.527.036-5.363.108-.288-.216-.288-1.044 0-1.26l.864-.108c1.656-.216 1.836-.576 1.836-3.924v-13.39c0-3.348-.18-3.708-1.836-3.923l-.864-.108c-.288-.216-.288-1.044 0-1.26 1.764.072 3.636.108 5.363.108 1.62 0 3.419-.036 5.003-.108.288.216.288 1.044 0 1.26l-.756.108c-1.548.216-1.764.576-1.764 3.923v4.175c0 1.044.036 1.08 1.512 1.08h7.487c1.512 0 1.512-.036 1.512-1.08v-4.175c0-3.348-.18-3.635-1.836-3.887l-.972-.144c-.288-.216-.288-1.044 0-1.26 1.979.072 3.743.108 5.471.108 1.764 0 3.419-.036 5.075-.108.288.216.288 1.044 0 1.26l-.72.108c-1.656.252-1.872.576-1.872 3.923v13.39c0 3.348.216 3.6 1.872 3.888l.864.144c.288.216.288 1.044 0 1.26a127.177 127.177 0 00-10.511 0c-.288-.216-.288-1.044 0-1.26l.792-.108c1.656-.216 1.836-.576 1.836-3.924v-5.183c0-1.008 0-1.044-1.512-1.044h-7.485zm27.432 6.767c0 2.88.216 3.24 1.98 3.384l1.476.108c.324.216.288 1.152-.072 1.26-1.296-.072-3.456-.108-5.688-.108-2.375 0-4.535.036-5.831.108-.36-.108-.396-1.044-.072-1.26l1.476-.108c1.764-.144 1.979-.504 1.979-3.384V109.73c0-2.375-.144-2.916-1.728-3.131l-1.656-.216c-.324-.18-.36-1.044-.072-1.26 1.476-.216 3.168-.612 4.607-1.008 1.584-.468 2.952-1.152 3.204-1.152.18 0 .432.108.504.396-.072.828-.108 2.484-.108 4.283v13.715zM543 24h36v3h-36zm12 6h24v6h-24zm0 9h24v6h-24zm-12 9h36v3h-36zm0 6h27v3h-27z" fill="#E6E6E6"/><path fill="#EDEDED" d="M549 30l-9 7.57 9 7.43v-6h3v-3h-3z"/><path fill="#E6E6E6" d="M468 24h36v3h-36zm12 6h24v6h-24zm0 9h24v6h-24zm-12 9h36v3h-36zm0 6h27v3h-27z"/><path fill="#EDEDED" d="M468 30l8.572 7.57L468 45v-6h-3v-3h3z"/><path d="M334.611 24H360v3h-25.389zm0 15H360v3h-25.389zm0 15H360v3h-25.389z" fill="#E6E6E6"/><path fill="#EDEDED" d="M330 25.5a4.5 4.5 0 00-9 0 4.5 4.5 0 009 0zm0 15a4.5 4.5 0 00-9 0 4.5 4.5 0 009 0zm0 15a4.5 4.5 0 00-9 0 4.5 4.5 0 009 0z"/><path d="M258 30h3v3l-9 7.5 9 7.5v3h-3l-12-10.5zm12 0h-3v3l9 7.5-9 7.5v3h3l12-10.5z" fill="#E6E6E6"/><g fill="#E6E6E6"><path d="M190.463 44.915c-2.002 0-4.742-1.483-6.315-2.531l2.745-1.597c.889.536 2.585 1.717 3.678 1.717 1.436-.006 2.774-.355 3.775-1.201l7.434-6.255c1.022-.879 1.588-2.016 1.592-3.255-.004-1.257-.57-2.402-1.594-3.273l-.315-.264c-.989-.838-2.316-1.307-3.731-1.318-1.469.012-2.757.475-3.762 1.33l-4.128 3.155c-.347.29-.851.513-1.351.513-.498 0-.948-.117-1.294-.41-.324-.275-.393-.647-.393-1.025 0-.375.293-.645.617-.926l3.926-3.337c1.67-1.424 3.99-2.238 6.368-2.238 2.376 0 4.695.815 6.366 2.235l.321.272c1.651 1.403 2.599 3.337 2.596 5.306.003 1.975-.945 3.914-2.599 5.32l-7.427 5.361c-1.677 1.427-3.955 2.485-6.338 2.485l-.171-.064z"/><path d="M180.242 57c-2.351 0-4.655-1.113-6.328-2.537l-.325-.413c-1.646-1.394-2.591-3.41-2.588-5.393-.003-1.972.942-3.935 2.593-5.335l7.433-6.334c1.674-1.421 3.983-2.244 6.344-2.244 1.876 0 3.702.486 5.197 1.374.054.032.114.062.177.088.087.035 1.027.955 1.108 1.008L191.361 39c-.888-.53-2.855-1.321-3.961-1.324-1.421.003-2.748.469-3.75 1.315l-7.434 6.319c-1.023.87-1.585 2.03-1.594 3.27.009 1.271.576 2.438 1.594 3.301l.331.275c.98.838 2.3 1.312 3.7 1.319 1.443-.006 2.786-.481 3.788-1.333l4.543-4.362c.347-.293 1.075-1.702 1.576-1.702.498 0 1.192.322 1.538.615.322.275.072 1.743.072 2.118 0 .381-.549.899-.873 1.172l-4.236 4.48c-1.673 1.424-3.999 2.537-6.387 2.537h-.026z"/></g><path fill="#E6E6E6" d="M115.655 55.779L115.293 57H100.5l.362-1.221h.802c1.069 0 1.974-.199 2.716-.597s1.246-.858 1.513-1.381c.267-.522.659-1.668 1.177-3.438l6.75-22.912c.534-1.77.802-2.876.802-3.319 0-1.274-1.112-1.912-3.336-1.912h-.931l.361-1.22H124.5l-.362 1.221h-.724c-.828 0-1.578.15-2.25.451-.672.301-1.151.717-1.435 1.248s-.754 1.903-1.409 4.115l-6.543 22.062c-.5 1.681-.75 2.743-.75 3.186 0 .867.366 1.5 1.099 1.898s1.573.597 2.522.597h1.007zM45.126 37.971c3.516.633 6.152 1.755 7.91 3.365s2.637 3.708 2.637 6.295c0 2.903-1.125 5.191-3.375 6.862S46.312 57 41.092 57H22.345v-2.93c1.881 0 3.129-.295 3.744-.884s.923-1.755.923-3.497V28.707c0-1.689-.29-2.842-.87-3.457-.58-.616-1.846-.924-3.797-.924v-2.93L36.082 21h1.951c6.188 0 10.406.77 12.656 2.309 2.25 1.54 3.375 3.638 3.375 6.295 0 2.006-.743 3.704-2.228 5.094s-3.722 2.481-6.71 3.273zM36 35.944h2.191c1.934 0 3.375-.559 4.324-1.465s1.424-2.306 1.424-4.54c0-1.672-.299-2.56-.896-3.528-.598-.968-1.384-1.592-2.36-1.874s-2.785-.604-4.683-.604v12.011zm0 3.003v10.874c0 .985.22 1.754.422 2.264.202.51.851.916 1.44 1.26s1.419.617 2.492.617c1.67 0 2.922-.692 3.757-1.871s1.252-2.947 1.252-5.305c0-1.883-.272-3.356-.817-4.421-.545-1.065-1.362-2.298-2.312-2.667-.949-.37-2.285-.751-4.148-.751H36zM255 108c0-3.3-2.7-6-6-6h-9v3h3v18h-3v3h9v-3h-3v-3h3c3.3 0 6-2.7 6-6v-6zm-6 9h-3v-12h3c1.65 0 3 1.35 3 3v6c0 1.65-1.35 3-3 3zm17.016-12.234c.939-.03 1.827.75 2.109 1.923l2.766-1.032c-.657-1.641-1.593-3.423-4.641-3.516-1.221-.039-3.192.546-3.987 1.653A5.977 5.977 0 00258 102v3c1.65 0 3 1.35 3 3v9h-3v3h9v-3h-3v-9c0-1.656.564-3.186 2.016-3.234zM283.5 102h-6a4.513 4.513 0 00-4.5 4.5v9c0 2.475 2.025 4.5 4.5 4.5h6c2.475 0 4.5-2.025 4.5-4.5l-3-.609v.609c0 .825-.675 1.5-1.5 1.5h-6c-.825 0-1.5-.675-1.5-1.5V111h12v-4.5c0-2.475-2.025-4.5-4.5-4.5zm-7.5 6v-1.5c0-.825.675-1.5 1.5-1.5h6c.825 0 1.5.675 1.5 1.5v1.5h-9zm200.782 23.931a8.028 8.028 0 01-5.714-2.367 8.02 8.02 0 01-2.367-5.713c0-2.159.841-4.189 2.367-5.713l22.009-22.011A10.6 10.6 0 01500.624 93c2.854 0 5.534 1.11 7.55 3.127 4.163 4.162 4.163 10.935 0 15.097l-18.34 18.34a.3.3 0 01-.424 0l-1.223-1.222a.3.3 0 010-.422l18.341-18.344a8.29 8.29 0 002.443-5.902c0-2.228-.867-4.324-2.443-5.9s-3.674-2.445-5.903-2.445a8.293 8.293 0 00-5.9 2.445l-22.008 22.008a5.762 5.762 0 000 8.139c1.085 1.084 2.53 1.682 4.066 1.682s2.981-.598 4.068-1.682l19.566-19.566a3.164 3.164 0 000-4.466c-.598-.596-1.392-.926-2.235-.926s-1.638.33-2.235.926l-15.894 15.894a.3.3 0 01-.424 0l-1.223-1.222a.3.3 0 010-.422l15.898-15.898a5.442 5.442 0 013.879-1.607c1.465 0 2.842.571 3.879 1.607a5.495 5.495 0 010 7.761l-19.563 19.563a8.043 8.043 0 01-5.717 2.366z"/><path d="M450 78v72h-72V78h72m3-3h-78v78h78V75zm-323.172 27.533c.522.792 1.225 1.53 2.575 1.53 1.495 0 2.845-1.206 2.845-3.061 0-1.477-.829-2.196-2.071-2.196-.738 0-1.17.18-1.927.594l-.594-.468 1.44-5.42h5.384l-.234 1.188h-4.195l-.937 3.385c.415-.198.918-.36 1.513-.36 1.729 0 3.007 1.026 3.007 3.025 0 2.736-2.053 4.465-4.321 4.465-1.566 0-2.683-.864-3.385-1.944l.9-.738zm13.627-5.168h-1.279l.198-1.025 1.369-.091.648-2.412h1.17l-.486 2.412h2.215l-.216 1.116h-2.25l-1.026 5.006a3.777 3.777 0 00-.054.648c0 .72.288 1.08 1.116 1.08.342 0 .648-.144.918-.27l.306.99c-.396.18-.972.396-1.656.396-1.53 0-2.089-.864-2.089-1.944 0-.36.054-.648.09-.973l1.026-4.933zm5.795-1.116h1.386L148.873 105h-1.369l1.746-8.751zm.289-2.628c0-.595.486-1.045 1.044-1.045.468 0 .882.307.882.828 0 .595-.486 1.026-1.044 1.026-.468.001-.882-.287-.882-.809zm4.787-1.441h1.387l-2.251 11.218c-.036.18-.036.271-.036.342 0 .217.126.324.306.324.072 0 .126 0 .288-.054l.018 1.062c-.234.09-.486.144-.864.144-.774 0-1.17-.414-1.17-1.134 0-.198.036-.45.108-.757l2.214-11.145zm6.697 3.853c1.962 0 2.701 1.368 2.701 3.169 0 .702-.198 1.387-.306 1.711h-5.689c-.324 2.25.846 3.205 2.376 3.205.685 0 1.404-.343 1.963-.757l.54.918c-.702.505-1.692.937-2.827.937-2.07 0-3.439-1.314-3.439-3.655-.001-3.295 2.394-5.528 4.681-5.528zm1.44 3.944c.054-.288.09-.559.09-.9 0-.99-.432-1.944-1.692-1.944-1.278 0-2.539 1.116-2.989 2.845h4.591zm2.662 2.898c.541.757 1.333 1.278 2.251 1.278 1.008 0 1.854-.666 1.854-1.458 0-.63-.378-.99-1.603-1.656-1.351-.738-1.999-1.404-1.999-2.395 0-1.549 1.369-2.611 3.007-2.611 1.062 0 1.927.486 2.575 1.171l-.792.773c-.468-.485-1.026-.864-1.819-.864-.936 0-1.656.631-1.656 1.369s.756 1.116 1.548 1.548c1.566.864 2.053 1.53 2.053 2.485 0 1.638-1.387 2.7-3.277 2.7-1.17 0-2.413-.738-3.007-1.656l.865-.684zm10.602-1.17c0-3.313 2.323-5.672 4.717-5.672 1.891 0 3.133 1.332 3.133 3.511 0 3.313-2.341 5.672-4.736 5.672-1.889 0-3.114-1.332-3.114-3.511zm1.386-.09c0 1.584.667 2.448 1.873 2.448 1.62 0 3.187-1.98 3.187-4.429 0-1.585-.666-2.467-1.873-2.467-1.602.001-3.187 1.999-3.187 4.448zm8.047-5.366h1.368l.648 5.06c.09.847.162 1.765.252 2.611h.072c.414-.864.847-1.747 1.296-2.611l2.575-5.06h1.387L188.094 105h-1.656l-1.278-8.751zm12.277-.216c1.962 0 2.701 1.368 2.701 3.169 0 .702-.198 1.387-.306 1.711h-5.689c-.324 2.25.846 3.205 2.376 3.205.684 0 1.405-.343 1.963-.757l.54.918c-.702.505-1.692.937-2.827.937-2.071 0-3.439-1.314-3.439-3.655-.001-3.295 2.394-5.528 4.681-5.528zm1.44 3.944c.054-.288.09-.559.09-.9 0-.99-.432-1.944-1.692-1.944-1.278 0-2.539 1.116-2.989 2.845h4.591zm4.156-3.728h1.134l-.198 1.675h.072c.702-1.062 1.639-1.891 2.719-1.891.324 0 .576.054.829.162l-.486 1.225c-.18-.09-.432-.145-.756-.145-.864 0-1.836.774-2.575 2.197L202.673 105h-1.369l1.729-8.751z"/><path fill="red" d="M3 106h3v15H3zm369 0h3v15h-3z"/><path fill="red" d="M3 112h372v3H3zM406 3h15v3h-15zm0 69h15v3h-15z"/><path fill="red" d="M412 3h3v72h-3z"/><path d="M428.702 47.848h2.503l1.729-8.606h-2.035l.181-.9c1.026-.144 1.854-.414 2.521-.828h1.062l-2.089 10.335h2.341L434.698 49h-6.229l.233-1.152zm13.753-6.483h-1.279l.198-1.025 1.368-.091.648-2.412h1.17l-.486 2.412h2.215l-.216 1.116h-2.251l-1.025 5.006a3.776 3.776 0 00-.055.648c0 .72.289 1.08 1.117 1.08.342 0 .647-.144.918-.27l.306.99c-.396.18-.972.396-1.656.396-1.53 0-2.089-.864-2.089-1.944 0-.36.055-.648.09-.973l1.027-4.933zm5.795-1.116h1.387L447.873 49h-1.369l1.746-8.751zm.289-2.628c0-.595.486-1.045 1.044-1.045.468 0 .882.307.882.828 0 .595-.486 1.026-1.044 1.026-.468.001-.882-.287-.882-.809zm4.787-1.441h1.387l-2.251 11.218c-.036.18-.036.271-.036.342 0 .217.127.324.307.324.072 0 .126 0 .288-.054l.018 1.062c-.233.09-.485.144-.864.144-.773 0-1.17-.414-1.17-1.134 0-.198.035-.45.107-.757l2.214-11.145zm6.697 3.853c1.962 0 2.7 1.368 2.7 3.169 0 .702-.198 1.387-.306 1.711h-5.689c-.324 2.25.846 3.205 2.376 3.205.685 0 1.404-.343 1.963-.757l.54.918c-.702.505-1.692.937-2.827.937-2.07 0-3.438-1.314-3.438-3.655 0-3.295 2.394-5.528 4.681-5.528zm1.44 3.944a4.55 4.55 0 00.09-.9c0-.99-.432-1.944-1.691-1.944-1.279 0-2.539 1.116-2.989 2.845h4.59zm13.177-4.375l.685-3.422h1.386L474.117 49h-1.135l.145-1.297h-.072c-.846.9-1.944 1.513-3.043 1.513-1.53 0-2.521-1.116-2.521-3.169 0-3.367 2.305-6.014 4.735-6.014.937 0 1.639.504 2.07 1.278h.055l.289-1.709zm-1.369 6.788l.792-3.907c-.505-.919-1.116-1.297-1.782-1.297-1.747 0-3.367 2.232-3.367 4.646 0 1.513.63 2.232 1.602 2.232.919-.001 1.873-.541 2.755-1.674zm3.85-.685c0-3.313 2.322-5.672 4.717-5.672 1.891 0 3.133 1.332 3.133 3.511 0 3.313-2.34 5.672-4.735 5.672-1.89 0-3.115-1.332-3.115-3.511zm1.386-.09c0 1.584.667 2.448 1.873 2.448 1.62 0 3.187-1.98 3.187-4.429 0-1.585-.666-2.467-1.873-2.467-1.602.001-3.187 1.999-3.187 4.448zm8.316-5.366h1.368l.289 5.149.053 2.449h.072c.36-.811.666-1.62 1.045-2.449l2.305-5.149h1.35l.307 5.149c.036.829.055 1.639.09 2.449h.072c.342-.811.631-1.62 1.008-2.449l2.287-5.149h1.297L494.386 49h-1.71l-.253-4.789-.054-2.575h-.072c-.359.864-.702 1.747-1.062 2.575L489.109 49h-1.656l-.63-8.751zm13.752 0h1.134l-.125 1.314h.072c.99-.864 1.962-1.53 3.061-1.53 1.477 0 2.07.828 2.07 2.179 0 .414-.036.721-.145 1.206L505.527 49h-1.369l1.08-5.401c.09-.469.145-.721.145-1.026 0-.883-.396-1.351-1.297-1.351-.684 0-1.53.486-2.629 1.585L500.215 49h-1.368l1.728-8.751z"/></svg>