<svg xmlns="http://www.w3.org/2000/svg" width="24" height="24" viewBox="0 0 24 24">
  <path fill="#FFF" d="M889.199,704 C889.199,693.467 880.533,684.8 870,684.8 L870,680 C883.165,680 894,690.835 894,704 L889.199,704 Z M873.291,697.415 C875.105,697.415 876.584,698.894 876.584,700.71 C876.584,702.523 875.099,704 873.283,704 C871.47,704 870,702.526 870,700.71 C870,698.894 871.475,697.416 873.291,697.415 Z M885.909,704 L881.244,704 C881.244,697.831 876.169,692.755 870,692.755 L870,688.09 C878.727,688.09 885.909,695.274 885.909,704 Z" transform="translate(-870 -680)"/>
</svg>
