<svg xmlns="http://www.w3.org/2000/svg" width="24" height="24" viewBox="0 0 24 24">
  <path fill="#FFF" d="M830,680.297 C823.37,680.297 818,685.67 818,692.297 C818,697.6 821.438,702.097 826.205,703.682 C826.805,703.795 827.025,703.424 827.025,703.105 C827.025,702.82 827.015,702.065 827.01,701.065 C823.672,701.789 822.968,699.455 822.968,699.455 C822.422,698.07 821.633,697.7 821.633,697.7 C820.546,696.956 821.717,696.971 821.717,696.971 C822.922,697.055 823.555,698.207 823.555,698.207 C824.625,700.042 826.364,699.512 827.05,699.205 C827.158,698.429 827.467,697.9 827.81,697.6 C825.145,697.3 822.344,696.268 822.344,691.67 C822.344,690.36 822.809,689.29 823.579,688.45 C823.444,688.147 823.039,686.927 823.684,685.274 C823.684,685.274 824.689,684.952 826.984,686.504 C827.944,686.237 828.964,686.105 829.984,686.099 C831.004,686.105 832.024,686.237 832.984,686.504 C835.264,684.952 836.269,685.274 836.269,685.274 C836.914,686.927 836.509,688.147 836.389,688.45 C837.154,689.29 837.619,690.36 837.619,691.67 C837.619,696.28 834.814,697.295 832.144,697.59 C832.564,697.95 832.954,698.686 832.954,699.81 C832.954,701.416 832.939,702.706 832.939,703.096 C832.939,703.411 833.149,703.786 833.764,703.666 C838.565,702.092 842,697.592 842,692.297 C842,685.67 836.627,680.297 830,680.297" transform="translate(-818 -680)"/>
</svg>
