<svg xmlns="http://www.w3.org/2000/svg" width="24" height="24" viewBox="0 0 24 24">
  <path fill="#FFF" d="M797.447,700.452 L793.893,700.452 L793.893,694.883 C793.893,693.555 793.866,691.846 792.041,691.846 C790.188,691.846 789.905,693.291 789.905,694.785 L789.905,700.452 L786.351,700.452 L786.351,689 L789.765,689 L789.765,690.561 L789.811,690.561 C790.288,689.661 791.448,688.711 793.181,688.711 C796.782,688.711 797.448,691.081 797.448,694.166 L797.448,700.452 L797.447,700.452 Z M782.337,687.433 C781.193,687.433 780.274,686.507 780.274,685.368 C780.274,684.23 781.194,683.305 782.337,683.305 C783.477,683.305 784.401,684.23 784.401,685.368 C784.401,686.507 783.476,687.433 782.337,687.433 Z M784.119,700.452 L780.555,700.452 L780.555,689 L784.119,689 L784.119,700.452 Z M799.225,680 L778.771,680 C777.792,680 777,680.774 777,681.729 L777,702.271 C777,703.227 777.792,704 778.771,704 L799.222,704 C800.2,704 801,703.227 801,702.271 L801,681.729 C801,680.774 800.2,680 799.222,680 L799.225,680 Z" transform="translate(-777 -680)"/>
</svg>
